<svg width="3126" height="2506" viewBox="0 0 3126 2506" fill="none" xmlns="http://www.w3.org/2000/svg">
<path d="M1701.97 236.943C2014.05 -75.0961 2510.07 -81.1267 2823.11 231.874L3013.87 422.603C3023.93 432.658 3023.93 448.961 3013.87 459.016L1924.07 1548.66C1914.01 1558.71 1897.71 1558.71 1887.66 1548.66L1696.9 1357.93C1383.85 1044.93 1389.88 548.981 1701.97 236.943Z" fill="white"/>
<path d="M1120.17 1188.17C1115.76 1186.07 1115.09 1180.02 1118.94 1177.02C1271.49 1057.99 1368.15 871.067 1368.15 660.037C1368.15 298.603 1084.62 7.88464 722.325 7.88464H25.7667C11.5478 7.88464 0.0211559 19.4113 0.0211551 33.6302L0.0210931 1121.31H6.23548e-05L0 2479.4C-6.5284e-07 2493.62 11.5267 2505.15 25.7455 2505.15H820.423C1207.99 2505.15 1511.31 2196.7 1511.31 1813.23C1511.31 1536.66 1353.53 1299.12 1120.17 1188.17Z" fill="white"/>
<path d="M2602.18 1019.75C2612.23 1009.7 2628.53 1009.7 2638.58 1019.75L2707.75 1088.92C2717.81 1098.97 2717.81 1115.27 2707.75 1125.33L1748.52 2084.42C1738.43 2094.51 1722.06 2094.47 1712.02 2084.33L1643.21 2014.81C1633.24 2004.74 1633.28 1988.51 1643.3 1978.49L2602.18 1019.75Z" fill="white"/>
<path d="M1927.19 2264.93C1917.1 2275.02 1900.73 2274.98 1890.69 2264.84L1821.47 2194.9C1811.5 2184.83 1811.54 2168.6 1821.56 2158.59L2301.52 1677.83L2781.37 1198.92C2791.42 1188.87 2807.72 1188.87 2817.77 1198.92L2887.36 1268.5C2897.41 1278.55 2897.41 1294.85 2887.36 1304.91L1927.19 2264.93Z" fill="white"/>
<path d="M2000.23 2339.1C1990.22 2349.12 1990.17 2365.35 2000.14 2375.41L2069.36 2445.35C2079.4 2455.49 2095.77 2455.54 2105.86 2445.45L3066.96 1484.49C3077.02 1474.43 3077.02 1458.13 3066.96 1448.08L2997.38 1378.5C2987.32 1368.45 2971.03 1368.45 2960.97 1378.5L2000.23 2339.1Z" fill="white"/>
<path d="M2412.42 2498.09C2407.6 2502.92 2401.05 2505.63 2394.22 2505.63H2223.97C2212.5 2505.63 2206.76 2491.76 2214.87 2483.65L3104.03 1594.63C3112.15 1586.51 3126.03 1592.28 3126 1603.77L3125.48 1774.56C3125.45 1781.36 3122.74 1787.88 3117.93 1792.68L2412.42 2498.09Z" fill="white"/>
<path d="M3124.88 1964.05C3124.92 1952.56 3111.03 1946.78 3102.91 1954.9L2574.08 2483.65C2565.97 2491.76 2571.71 2505.63 2583.18 2505.63L2868.63 2505.63C2875.5 2505.63 2882.09 2502.88 2886.92 2498L3116.45 2266.32C3121.2 2261.52 3123.88 2255.04 3123.9 2248.28L3124.88 1964.05Z" fill="white"/>
</svg>
