<svg width="32" height="32" viewBox="0 0 32 32" fill="none" xmlns="http://www.w3.org/2000/svg">
<path d="M16.066 24.446C15.718 25.394 15.592 26.06 15.688 26.444C15.784 26.828 15.988 27.02 16.3 27.02C16.504 27.02 16.726 26.954 16.966 26.822C17.206 26.678 17.494 26.432 17.83 26.084C18.022 25.916 18.172 25.808 18.28 25.76C18.4 25.712 18.514 25.718 18.622 25.778C18.754 25.838 18.814 25.952 18.802 26.12C18.802 26.288 18.742 26.498 18.622 26.75C18.178 27.542 17.554 28.178 16.75 28.658C15.958 29.126 15.076 29.36 14.104 29.36C13.384 29.36 12.838 29.198 12.466 28.874C12.094 28.55 11.902 28.076 11.89 27.452C11.878 26.816 12.034 26.048 12.358 25.148L15.256 17.246C15.604 16.274 15.73 15.602 15.634 15.23C15.55 14.846 15.346 14.654 15.022 14.654C14.818 14.654 14.596 14.72 14.356 14.852C14.116 14.984 13.822 15.23 13.474 15.59C13.294 15.746 13.144 15.848 13.024 15.896C12.904 15.944 12.79 15.944 12.682 15.896C12.55 15.836 12.484 15.722 12.484 15.554C12.496 15.386 12.568 15.182 12.7 14.942C13.156 14.126 13.78 13.478 14.572 12.998C15.364 12.518 16.228 12.278 17.164 12.278C17.836 12.278 18.358 12.44 18.73 12.764C19.114 13.088 19.324 13.574 19.36 14.222C19.396 14.858 19.24 15.656 18.892 16.616L16.066 24.446ZM18.442 8.948C17.71 8.948 17.152 8.75 16.768 8.354C16.396 7.946 16.24 7.46 16.3 6.896C16.336 6.44 16.498 6.008 16.786 5.6C17.086 5.18 17.47 4.844 17.938 4.592C18.418 4.328 18.958 4.196 19.558 4.196C20.338 4.196 20.902 4.4 21.25 4.808C21.61 5.204 21.754 5.69 21.682 6.266C21.646 6.746 21.484 7.19 21.196 7.598C20.908 8.006 20.524 8.336 20.044 8.588C19.576 8.828 19.042 8.948 18.442 8.948Z" fill="black"/>
</svg>
